inDegrees=no
num_controls=7
num_derivatives=13
num_iterations=198
num_multipliers=7
num_parameters=0
num_slacks=7
num_states=26
objective=6.335340
objective_accelerations=0.615738
objective_balance=0.054364
objective_effort=0.516618
objective_height=5.103084
objective_ligament=0.045536
solver_duration=1838.524972
status=Solve_Succeeded
success=true
DataType=double
version=3
OpenSimVersion=4.4-2022-07-23-0e9fedc
endheader
time	/jointset/ground_pelvis/pelvis_tilt/value	/jointset/ground_pelvis/pelvis_tx/value	/jointset/ground_pelvis/pelvis_ty/value	/jointset/hip_r/hip_flexion_r/value	/jointset/hip_r/hip_adduction_r/value	/jointset/hip_r/hip_rotation_r/value	/jointset/back/lumbar_extension/value	/jointset/patellofemoral_r/patellar_flexion_r/value	/jointset/knee_r/knee_flexion_r/value	/jointset/knee_r/knee_adduction_r/value	/jointset/knee_r/knee_rotation_r/value	/jointset/ankle_r/ankle_angle_r/value	/jointset/subtalar_r/subtalar_angle_r/value	/jointset/ground_pelvis/pelvis_tilt/speed	/jointset/ground_pelvis/pelvis_tx/speed	/jointset/ground_pelvis/pelvis_ty/speed	/jointset/hip_r/hip_flexion_r/speed	/jointset/hip_r/hip_adduction_r/speed	/jointset/hip_r/hip_rotation_r/speed	/jointset/back/lumbar_extension/speed	/jointset/patellofemoral_r/patellar_flexion_r/speed	/jointset/knee_r/knee_flexion_r/speed	/jointset/knee_r/knee_adduction_r/speed	/jointset/knee_r/knee_rotation_r/speed	/jointset/ankle_r/ankle_angle_r/speed	/jointset/subtalar_r/subtalar_angle_r/speed	/forceset/tau_hip_flexion_r	/forceset/tau_hip_adduction_r	/forceset/tau_hip_rotation_r	/forceset/tau_knee_flexion_r	/forceset/tau_ankle_angle_r	/forceset/tau_subtalar_angle_r	/forceset/tau_lumbar_extension	lambda_cid13_p0	lambda_cid14_p0	lambda_cid14_p1	lambda_cid14_p2	lambda_cid14_p3	lambda_cid14_p4	lambda_cid14_p5	/jointset/ground_pelvis/pelvis_tilt/accel	/jointset/ground_pelvis/pelvis_tx/accel	/jointset/ground_pelvis/pelvis_ty/accel	/jointset/hip_r/hip_flexion_r/accel	/jointset/hip_r/hip_adduction_r/accel	/jointset/hip_r/hip_rotation_r/accel	/jointset/back/lumbar_extension/accel	/jointset/patellofemoral_r/patellar_flexion_r/accel	/jointset/knee_r/knee_flexion_r/accel	/jointset/knee_r/knee_adduction_r/accel	/jointset/knee_r/knee_rotation_r/accel	/jointset/ankle_r/ankle_angle_r/accel	/jointset/subtalar_r/subtalar_angle_r/accel	gamma_cid13_p0	gamma_cid14_p0	gamma_cid14_p1	gamma_cid14_p2	gamma_cid14_p3	gamma_cid14_p4	gamma_cid14_p5
0.5	-0.1695219079760154	0.02326235585720207	0.8292056809759216	0.8844581324768025	-0.2262539602129746	-0.1211780611816603	-0.329754042472233	0.8100217098156743	0.8100217098156828	0.009215691074328746	0.1745309882147196	0.2726895508359112	0.06435351812547066	-0.4470379428598741	-0.1494807632471922	-0.4714517305255288	1.931870682834599	0.002777268216797596	0.2387144333924798	-0.5979516965491308	1.995357809364836	1.995357809364653	-0.3794011223634904	2.338893474491543e-06	0.6142761883127086	0.1857082151037995	-0.1218006830017454	-0.02038061132464854	0.01275311978929385	-0.3503422002737482	0.07412026047574216	-0.004595768682959879	0.1657593858005955	-24.67280287999936	-17.47430925274741	-1.77639231310021	-3.002432798133559	1.523847816700587	-659.8228028839413	61.95308051276005	0.2904363697205731	0.4410405153218305	-0.4974451226323114	-1.14301307961484	-0.1335218279233362	-0.6278783258666752	1.555862724465425	-1.342251949487918	-1.342251949487929	0.4667117499839307	-0.0849542798962592	-0.6599350734559927	-0.1975021268029712	-4.582148067610269e-08	3.782084491284078e-07	3.407615963354719e-06	3.169248124577797e-06	-6.490915812697696e-07	2.958900866886126e-07	1.196497090800387e-06
0.51	-0.1739770603164906	0.02178976692058408	0.8244673600528909	0.9037170266040274	-0.2262325596588537	-0.1188285190011627	-0.3356550886935135	0.8299052298621439	0.8299052298621507	0.005440583756737436	0.174531029082921	0.2787984911611774	0.06620093248337169	-0.4439282955078288	-0.145020830081706	-0.4761042669375692	1.919646294145929	0.001495245369096465	0.2312046510596046	-0.5821855145409206	1.981066327053289	1.981066327053243	-0.375589780693941	-1.810399457576622e-06	0.6074220787306316	0.1837292230882594	-0.1285448864148677	-0.01867877868376536	0.01303385902652484	-0.353917332769976	0.0705735804040626	-0.003636043550296684	0.1717545685490606	-23.40067434414062	-18.82322532360198	-1.711771549697965	-2.880234337344309	2.027733717068604	-664.5062235775806	62.09825968755462	0.3308896559498506	0.4507692253955428	-0.432872421193192	-1.301390069267199	-0.1259306927388078	-0.8108133281339864	1.597800913875808	-1.514568410619861	-1.514568410599281	0.3435103546022162	0.04135558430692239	-0.7117279646364832	-0.2040067261206835	-4.522274683767885e-08	3.664351314670566e-07	3.365452727591951e-06	3.032336397456568e-06	-6.367711090239194e-07	2.713325248425975e-07	1.302850870568158e-06
0.52	-0.1783991840358443	0.02036223721726766	0.8196857708615991	0.9228458291832117	-0.2262240569691188	-0.1165537316722202	-0.3413963120997362	0.8496374406777709	0.8496374406777784	0.001704622851673569	0.1745309286258467	0.2848361745778125	0.06802737512367915	-0.4404322186356512	-0.1404689165868788	-0.4801053841777422	1.905852373226292	0.0001976953395800088	0.2237634630812875	-0.5659871335376316	1.965095963196472	1.965095963196564	-0.3715718398579222	-2.592616044596031e-05	0.6000248065864376	0.181513871585074	-0.1352890898279849	-0.01697694604287353	0.01331459826376377	-0.3574924652662028	0.06702690033238554	-0.002676318417620954	0.177749751297529	-22.12009001902183	-20.17985673061895	-1.649726553318042	-2.756222337497969	2.555042329684474	-669.3051738259613	62.21410834625704	0.3677222737470065	0.4594365811900634	-0.3671612882587968	-1.456919525808187	-0.1366272642864032	-0.6141594549550892	1.642302523481146	-1.678028258541756	-1.678028258541725	0.5080315832777953	-0.08894757350751797	-0.7685675858794029	-0.244774024332012	-4.675661977548012e-08	3.460369760076447e-07	3.285478482130337e-06	2.826961134271222e-06	-6.141751771480607e-07	2.395986115266432e-07	1.392822971374707e-06
0.53	-0.1827845229912974	0.01898070538763328	0.8148674757014877	0.9418289222056472	-0.2262286846480601	-0.1143530008393779	-0.3469734488217651	0.8692016639326523	0.8692016639326448	-0.001990137697393264	0.1745304909444864	0.2907973142026428	0.06983039883913292	-0.436580505467688	-0.1358191071113919	-0.4834401744411779	1.890510401472776	-0.001120210849527313	0.2163398213452591	-0.5493750403789974	1.947479730609126	1.947479730609128	-0.3674059220162477	-4.007505015430435e-05	0.5921334219484574	0.1790645236260368	-0.1416553905082104	-0.01598229872019456	0.01340839880017601	-0.3616681858474681	0.06436611759110097	-0.001381687008001816	0.1834797322755581	-20.83491591372938	-21.23444454475598	-1.353281594702709	-2.710778013142026	2.784871832441059	-674.1965806326763	62.84370158044502	0.4021802268895663	0.4703840037082756	-0.2995722988238221	-1.6111752358584	-0.128263848554463	-0.8128251514961006	1.680438285400488	-1.843754821961709	-1.843754821975272	0.3675467977302657	0.0461621051503537	-0.8099794512333578	-0.2481359636121622	-6.198915633994152e-08	2.563986502315571e-07	2.8723462528894e-06	2.076942486332785e-06	-5.065438346249018e-07	1.528810357189863e-07	1.343224246462697e-06
0.54	-0.1871296879373567	0.01764619782734984	0.8100192457580544	0.9606509276634011	-0.2262462696993575	-0.112227778147611	-0.3523825094975384	0.8885816580490334	0.888581658049011	-0.00564390408542125	0.1745306739045827	0.296677428871398	0.07160830491861188	-0.4323974167569819	-0.1310640627166932	-0.4860923408421309	1.873634860289856	-0.002393779131897771	0.2086618348664553	-0.532371924286526	1.928250135496551	1.928250135496462	-0.3633730076498545	9.820213425065457e-05	0.5838198153714363	0.1764903443900966	-0.1480216911884349	-0.01498765139751579	0.01350219933661125	-0.3658439064287328	0.06170533484981607	-8.705559838380073e-05	0.1892097132535881	-19.55115702980864	-22.29557814269284	-1.055556732666812	-2.668305535184841	3.028950716812007	-679.198516962721	63.45995352418674	0.4339973822955484	0.4804835650324384	-0.2306365157622662	-1.763633411688956	-0.1277596829390164	-0.665028403510148	1.720507110248609	-2.00070076358767	-2.000700763587668	0.4814308882214923	-0.05846235868489441	-0.8530119736875315	-0.2697402797125845	-9.237766117219729e-08	9.015417857318927e-08	2.09061370116921e-06	7.243396680292191e-07	-3.048307611728138e-07	5.330471622636737e-09	1.139206735649302e-06
0.55	-0.1914312140396591	0.01635963181122915	0.8051479393728824	0.9792964535892	-0.226277035421257	-0.1101763103454596	-0.3576199447610003	0.9077614948761781	0.9077614948761062	-0.009253843633049357	0.1745308662577675	0.302472038592373	0.07335873301521609	-0.427850401975222	-0.1262456755306129	-0.4880539219160845	1.855233095121306	-0.00375073412083996	0.2015924905403728	-0.5150704671243099	1.907463533517365	1.907463533517265	-0.3586411224335674	-3.405980691042753e-05	0.5750272578527744	0.1735718217113395	-0.1545437960363862	-0.01306932173972798	0.01346258670381502	-0.3693690952383716	0.05818491032304625	0.0007152172272621487	0.1949579413117149	-18.27576569729233	-23.66206868305098	-1.07642363556075	-2.516451927988595	3.634660868422089	-684.1097566815813	63.38151395756238	0.4736615664206935	0.4829970808497923	-0.1616817921176542	-1.914034038527743	-0.1382584337006822	-0.7339109493808061	1.741664211415953	-2.155672586706748	-2.155672586708401	0.4653638378039704	0.01327609182814325	-0.9036571713051383	-0.30616585096775	-1.075204090305523e-07	-9.765337300301507e-09	1.570584768754078e-06	-9.798825990684999e-08	-1.785374395428027e-07	-8.063508143320272e-08	9.87357354556735e-07
0.5600000000000001	-0.1956855483860825	0.01512134582406007	0.8002604645991896	0.9977508446694963	-0.2263210896984102	-0.1081967406870158	-0.3626830256143985	0.9267258591492082	0.9267258591490832	-0.01281720502861774	0.1745305128323667	0.3081764668320914	0.07507932436723073	-0.4229590655812828	-0.1214080569263725	-0.4893260185462716	1.83540789118917	-0.005051490182936666	0.1942822061253501	-0.4975010422737799	1.885155624673274	1.885155624673162	-0.3540573772384149	-1.095360167631198e-05	0.5657835191201281	0.1705229954721629	-0.1610659008843364	-0.01115099208194294	0.01342297407100237	-0.372894284048011	0.05466448579627552	0.001517490052904193	0.2007061693698431	-17.01165607942083	-25.03335783178746	-1.095599410489921	-2.367758760969055	4.237600668586183	-689.0970705125765	63.34303448846532	0.5028617047314243	0.4843298486644761	-0.0927396270089153	-2.048321164405878	-0.1165198975699242	-0.7132164212981777	1.774100647911395	-2.304962136568566	-2.304962136568578	0.4518028839945673	-0.02738872940584406	-0.9432482164843672	-0.2958009917964876	-1.043682485202269e-07	-3.009490623194256e-08	1.364600179505006e-06	-2.839863194019437e-07	-1.427478200992808e-07	-9.26986212404324e-08	8.981097291291584e-07
0.5700000000000001	-0.1998893489599396	0.01393154560886738	0.7953637424186349	1.015999934634264	-0.2263779982729185	-0.1062901559131597	-0.3675691461665027	0.9454596873308621	0.9454596873308542	-0.01633433074637145	0.1745304434609534	0.3137863106084426	0.07676857664784766	-0.4177490553085585	-0.1165467822591504	-0.4898998973045837	1.814171879246766	-0.006327828241980211	0.1870507042175192	-0.4796901982784295	1.861366987609321	1.86136698760926	-0.3493390458229343	-1.671765504052173e-06	0.5561232027580446	0.1672963669174742	-0.1671835050336234	-0.01001646287233545	0.01338051055177053	-0.3769938028926687	0.0519465368887253	0.002522788794538588	0.2061442667885446	-15.76126728531748	-26.13337929318877	-0.9504050583183319	-2.278052305186823	4.606421539968298	-694.0969525052709	63.70960200823813	0.5378640294377988	0.4877823530765893	-0.0219538657194099	-2.196980897844707	-0.1328136275379682	-0.7258739080736925	1.789506755616891	-2.452247581489564	-2.452247581482069	0.4863197225640132	0.01522948799793108	-0.98676401706782	-0.3406074210957379	-1.011023512008184e-07	-4.660870097166711e-08	1.176250384800716e-06	-4.338326855879145e-07	-1.117372150759249e-07	-9.886023380222361e-08	8.037895825729089e-07
0.58	-0.2040394907628897	0.01279050935581201	0.7904648330774017	1.034029516541872	-0.2264475948015095	-0.1044554375248924	-0.3722761721825993	0.9639483425238408	0.9639483425239493	-0.01980337885952111	0.1745304954774466	0.3192976830869735	0.07842465991615967	-0.41222731140004	-0.1116552644989088	-0.4897634506819794	1.79150627975688	-0.007589080999681144	0.1799089290077632	-0.4616821350722788	1.836121026938132	1.836121026938121	-0.3444418563178865	1.332398543510244e-05	0.5460892595560629	0.1638891930111587	-0.1733011091829089	-0.008881933662725843	0.01333804703253804	-0.3810933217373261	0.04922858798117567	0.003528087536176075	0.2115823642072473	-14.52662055386322	-27.23765673862845	-0.8009742277616561	-2.194711092373831	4.965775853784	-699.1747668357079	64.1260058619349	0.5652084318902915	0.4903784672683678	0.04932544917436074	-2.334238673902429	-0.1135028373014003	-0.6952710816831746	1.813544490071431	-2.596426858015778	-2.596426858015804	0.4875745019079917	-0.02624594645247005	-1.017973584463971	-0.3319100621218439	-9.768833152539491e-08	-5.815311536843064e-08	1.010866834154748e-06	-5.365977767666558e-07	-8.69504427858084e-08	-9.733561553274635e-08	7.028633619886218e-07
0.59	-0.2081329327309821	0.01169846180090198	0.7855708318838716	1.051825511537511	-0.2265296833490827	-0.1026912763812903	-0.3768022818781079	0.9821774339797442	0.98217743397986	-0.02322234281264633	0.1745304641857466	0.3247068983044792	0.08004581029087177	-0.4064132543064273	-0.1067564305903751	-0.4889183857090932	1.767468948095875	-0.008821719114169584	0.1729255762865935	-0.443524872600915	1.809466900156349	1.80946690015627	-0.3393377581742896	-1.056095389830783e-05	0.535695870027725	0.1603163009953668	-0.1792220556898946	-0.007620045754877548	0.01327212501900273	-0.3851147739710946	0.04647558331617762	0.004321984787973574	0.2167951075236971	-13.30935612905038	-28.36013788554276	-0.7672568166641028	-2.069261433384794	5.416730426554195	-704.1030110385478	64.31756916807423	0.5966703786657416	0.4892937507849069	0.1198380801030382	-2.472055331221205	-0.1271458332753331	-0.6996748720316873	1.819056839921713	-2.73444106354455	-2.734441063554724	0.5239209550175474	0.01080193420240263	-1.058734551566306	-0.373592631808435	-9.514664775440267e-08	-6.973534281700121e-08	8.555953209763773e-07	-6.378535615719298e-07	-6.344637425725824e-08	-9.54406412381217e-08	6.033388528284325e-07
